<?xml version="1.0" encoding="utf-8"?>
<!-- Generator: Adobe Illustrator 23.0.4, SVG Export Plug-In . SVG Version: 6.00 Build 0)  -->
<svg version="1.1" id="Layer_1" xmlns="http://www.w3.org/2000/svg" xmlns:xlink="http://www.w3.org/1999/xlink" width="45px" height="45px" x="0px" y="0px"
	 viewBox="0 0 30 30" style="enable-background:new 0 0 30 30;" xml:space="preserve">
<style type="text/css">
	.st0{fill:#FFFFFF;}
</style>
<path class="st0" d="M13.6,27.4c0.1-4.7-1.8-7.5-6.2-7.8c-1.8-0.1-1-1.6-1-1.8C6.4,17.5,6,17.5,6,17c0-0.4,0.5-0.5,0.5-0.7
	c0-0.1-0.8,0-0.8-0.6c0-0.3,0.1-0.8,0.3-1.3c0.1-0.4-1.1-0.2-1.1-1.3s2.1-2.5,2.1-3c0-3.6,1.6-7.6,7.8-7.6c6.8,0,9.7,4,9.7,7.7
	c0,1.9-0.6,4.6-0.9,3.7c-0.1-0.4,0.1-1.6-0.1-3c-0.4-2.5-4.2-5.6-7.3-5.6c-3.5,0-5.7,2.2-5.7,5c0,6.1,4.6,9.1,4.6,14.3
	c0,1.5,0,2.6-0.3,2.6L13.6,27.4z"/>
<path class="st0" d="M12.8,7.7c0-0.1,0-0.2,0.2-0.1c0.2,0,0.3,0,0.5,0c0.1,0,0.1,0,0.2-0.1c0-0.1,0-0.1-0.1-0.2s-0.1-0.3,0-0.4
	s0.2-0.2,0.4-0.2c0.3,0,0.4,0.3,0.3,0.5c0,0.1-0.1,0.1-0.1,0.2c0.1,0.1,0.2,0.1,0.3,0c0.2,0,0.3,0,0.5,0c0.1,0.2,0.1,0.5,0.1,0.7
	c0,0.1-0.1,0.1-0.1,0.1c-0.1,0-0.1-0.1-0.1-0.1c-0.2-0.1-0.3,0-0.4,0.1c-0.1,0.1-0.1,0.3,0,0.4c0.1,0.1,0.3,0.2,0.4,0.1
	c0.1,0,0.2-0.2,0.2-0.1c0.1,0.1,0,0.2,0,0.3V9c0,0.3,0,0.3-0.3,0.3c-0.5,0-1,0-1.5,0c-0.1,0-0.2,0-0.2-0.2c0-0.1,0-0.1,0-0.2
	c0-0.1,0-0.2,0-0.3c0-0.2,0-0.2-0.1-0.1C12.6,8.9,12.5,9,12.4,9s-0.3-0.1-0.3-0.2c0-0.1,0-0.3,0.1-0.4c0.1-0.1,0.2-0.1,0.4-0.1
	c0.1,0,0.2,0.2,0.3,0.1c0.1-0.1,0-0.2,0-0.3C12.9,7.9,12.9,7.9,12.8,7.7C12.9,7.8,12.9,7.7,12.8,7.7z"/>
<path class="st0" d="M17.1,11.6c0.1,0.1,0,0.2-0.1,0.2c-0.2,0.1-0.3,0.1-0.4,0.2c-0.1,0-0.1,0.1-0.1,0.1c0,0.1,0.1,0.1,0.1,0.1
	c0.2,0.1,0.2,0.2,0.2,0.4s-0.1,0.3-0.2,0.3c-0.2,0.1-0.5-0.1-0.5-0.3c0-0.1,0.1-0.2,0-0.2c-0.1-0.1-0.2,0-0.3,0.1s-0.3,0.2-0.4,0.2
	c-0.2-0.2-0.3-0.4-0.4-0.6c0-0.1,0-0.1,0.1-0.1s0.1,0,0.2,0c0.2,0,0.3-0.1,0.3-0.3s0-0.3-0.2-0.4c-0.1-0.1-0.3,0-0.4,0.1
	c-0.1,0.1-0.1,0.2-0.2,0.2c-0.1,0-0.1-0.2-0.2-0.3v-0.1c-0.1-0.3-0.1-0.3,0.1-0.5c0.4-0.2,0.9-0.5,1.3-0.7c0.1-0.1,0.2-0.1,0.2,0.1
	c0,0.1,0.1,0.1,0.1,0.2c0,0.1,0.1,0.2,0.1,0.2c0.1,0.1,0.1,0.2,0.2,0.1c0.1-0.1,0.1-0.2,0.3-0.3c0.1,0,0.3,0,0.4,0.1
	s0.1,0.3,0.1,0.4c0,0.1-0.2,0.2-0.3,0.2c-0.1,0-0.2-0.1-0.3,0c-0.1,0.1,0.1,0.2,0.1,0.3C17,11.4,17.1,11.5,17.1,11.6L17.1,11.6z"/>
<path class="st0" d="M18.6,15c0.2,0,0.3,0,0.5,0c0.1,0,0.1,0,0.2,0.1c0,0.1,0,0.1-0.1,0.2c-0.1,0.1-0.1,0.3,0,0.4
	c0.1,0.1,0.2,0.2,0.4,0.2c0.3,0,0.4-0.3,0.3-0.5c0-0.1-0.1-0.1-0.1-0.2c0.1-0.1,0.2-0.1,0.3,0c0.2,0,0.3,0,0.5,0
	c0.1-0.2,0.1-0.5,0.1-0.7c0-0.1-0.1-0.1-0.1-0.1c-0.1,0-0.1,0.1-0.1,0.1c-0.2,0.1-0.3,0-0.4-0.1s-0.1-0.3,0-0.4
	c0.1-0.1,0.3-0.2,0.4-0.1c0.1,0,0.2,0.2,0.2,0.1c0.1-0.1,0-0.2,0-0.3v-0.1c0-0.3,0-0.3-0.3-0.3c-0.5,0-1,0-1.5,0
	c-0.1,0-0.2,0-0.2,0.2c0,0.1,0,0.1,0,0.2c0,0.1,0,0.2,0,0.3c0,0.2,0,0.2-0.1,0.1C18.5,14,18.4,14,18.2,14c-0.1,0-0.3,0.1-0.3,0.2
	c0,0.1,0,0.3,0.1,0.4c0.1,0.1,0.2,0.1,0.4,0.1c0.1,0,0.2-0.2,0.3-0.1c0.1,0.1,0,0.2,0,0.3C18.6,14.8,18.5,15,18.6,15z"/>
<path class="st0" d="M18.9,8.8c-0.2,0-0.3-0.1-0.4-0.2l-0.1-0.1c-0.1,0-0.1,0.1-0.1,0.1c0,0.2-0.1,0.3-0.1,0.5c0,0.1,0,0.1-0.1,0.1
	c-0.2-0.1-0.4-0.1-0.6-0.2c-0.1,0-0.1-0.1,0-0.2l0.1-0.1c0.1-0.1,0.1-0.3,0-0.4c-0.1-0.1-0.2-0.2-0.4-0.1C17,8.3,17,8.4,17,8.5v0.1
	c0,0.1,0,0.1,0,0.2c-0.1,0.1-0.1,0-0.2,0c-0.2-0.1-0.3-0.1-0.5-0.2c-0.1,0-0.1-0.1-0.1-0.2c0.1-0.1,0.1-0.3,0.2-0.5V7.8
	c0-0.1-0.1,0-0.1,0h-0.1c-0.2,0-0.3-0.1-0.4-0.2c-0.1-0.2,0-0.3,0.2-0.4s0.3-0.1,0.4,0.1c0.1,0.1,0.1,0.2,0.2,0.2s0.1-0.2,0.1-0.2
	C16.9,7,17,6.8,17,6.7c0-0.1,0-0.1,0.1-0.1c0.2,0.1,0.4,0.1,0.5,0.2c0.1,0,0.1,0.1,0,0.2c0,0-0.1,0-0.1,0.1
	c-0.1,0.1-0.2,0.3-0.1,0.4s0.2,0.2,0.4,0.1C18,7.6,18,7.4,18,7.2V7.1C18,7,18,6.9,18.2,7s0.4,0.2,0.5,0.2s0.1,0.1,0,0.2
	c-0.1,0.2-0.2,0.3-0.2,0.5c0,0-0.1,0.1,0,0.2h0.1c0.2-0.1,0.3,0,0.4,0.1C19.3,8.4,19.3,8.6,18.9,8.8z"/>
<path class="st0" d="M21.7,12c-0.2-0.1-0.2-0.2-0.3-0.3c0,0,0-0.1-0.1-0.1s-0.1,0.1-0.1,0.1c-0.1,0.1-0.2,0.3-0.3,0.4
	c0,0.1-0.1,0.1-0.1,0c-0.2-0.1-0.3-0.2-0.5-0.3c-0.1-0.1-0.1-0.1,0-0.2c0.1,0,0.1,0,0.2-0.1c0.2-0.1,0.2-0.2,0.2-0.4
	s-0.2-0.2-0.3-0.2c-0.2,0-0.3,0.1-0.3,0.3v0.1c0,0.1,0,0.1-0.1,0.2c-0.1,0-0.1,0-0.2-0.1s-0.2-0.2-0.4-0.3c-0.1-0.1-0.1-0.1,0-0.2
	c0.1-0.1,0.2-0.2,0.3-0.4l0.1-0.1c0-0.1-0.1-0.1-0.1-0.1h-0.1c-0.2,0-0.3-0.2-0.3-0.3c0-0.2,0.1-0.3,0.3-0.4c0.2,0,0.3,0,0.4,0.2
	c0,0.1,0,0.2,0.1,0.2s0.1-0.1,0.2-0.2c0.1-0.1,0.2-0.2,0.2-0.4c0-0.1,0.1-0.1,0.1-0.1c0.2,0.1,0.3,0.2,0.5,0.3
	c0.1,0.1,0.1,0.2,0,0.2H21c-0.2,0.1-0.2,0.2-0.2,0.4s0.1,0.3,0.3,0.3c0.2,0,0.3-0.1,0.3-0.3v-0.1c0-0.1,0.1-0.2,0.2-0.1
	c0.2,0.1,0.3,0.3,0.4,0.4c0.1,0.1,0,0.1,0,0.2c-0.1,0.1-0.3,0.3-0.4,0.4l-0.1,0.1c0,0.1,0.1,0.1,0.1,0.1c0.2,0,0.3,0.1,0.4,0.2
	C22.1,11.8,22,12,21.7,12z"/>
</svg>
