<?xml version="1.0" standalone="no"?>
<!DOCTYPE svg PUBLIC "-//W3C//DTD SVG 20010904//EN"
 "http://www.w3.org/TR/2001/REC-SVG-20010904/DTD/svg10.dtd">
<svg version="1.0" xmlns="http://www.w3.org/2000/svg"
 width="287.000000pt" height="287.000000pt" viewBox="0 0 287.000000 287.000000"
 preserveAspectRatio="xMidYMid meet">
<metadata>
Created by potrace 1.11, written by Peter Selinger 2001-2013
</metadata>
<g transform="translate(0.000000,287.000000) scale(0.100000,-0.100000)"
fill="#000000" stroke="none">
<path d="M1242 2854 c-332 -49 -550 -223 -643 -513 -16 -51 -32 -113 -35 -136
-2 -24 -7 -53 -9 -66 -3 -12 -5 -50 -6 -83 -1 -34 -6 -70 -12 -81 -6 -11 -50
-62 -98 -113 -158 -167 -174 -266 -54 -324 50 -24 51 -28 31 -84 -7 -22 -13
-61 -12 -89 1 -51 10 -61 71 -80 19 -6 19 -8 -7 -28 -41 -34 -46 -70 -14 -108
15 -17 24 -38 21 -48 -20 -65 -22 -111 -4 -140 28 -46 35 -48 190 -66 79 -9
193 -42 263 -76 193 -94 308 -260 362 -523 6 -32 17 -158 19 -221 1 -60 1 -60
31 -59 54 1 118 14 125 25 11 19 19 118 18 254 0 180 -32 332 -104 500 -32 73
-197 398 -215 420 -19 24 -120 268 -145 349 -58 192 -78 396 -51 520 42 188
160 327 342 404 137 57 316 70 459 33 264 -69 552 -301 644 -520 33 -79 34
-81 38 -271 3 -96 9 -179 14 -185 43 -43 99 238 94 465 -9 372 -252 668 -650
793 -180 56 -475 79 -663 51z"/>
<path d="M1680 2350 c-13 -27 -26 -50 -29 -50 -4 0 -14 9 -23 19 -18 21 -49
19 -68 -4 -19 -22 5 -55 40 -55 l29 0 -13 -37 c-15 -44 -11 -63 13 -63 9 0 26
-7 37 -15 26 -17 34 -11 34 26 0 33 26 52 52 38 19 -10 24 -44 8 -54 -20 -12
-9 -33 21 -44 37 -13 60 -14 58 -3 -1 4 2 21 6 39 l7 32 28 -20 c24 -18 30
-19 49 -8 11 8 21 22 21 31 0 22 -45 52 -65 45 -23 -10 -25 5 -3 52 11 23 18
44 16 45 -28 16 -77 33 -82 29 -3 -4 -6 -19 -6 -34 0 -22 -6 -30 -26 -35 -39
-10 -53 10 -31 47 9 17 17 34 17 39 0 6 -52 30 -65 30 -1 0 -12 -22 -25 -50z"/>
<path d="M1321 2374 c-23 -16 -28 -53 -10 -71 14 -14 -20 -25 -66 -21 -32 3
-31 6 -20 -64 4 -25 3 -26 -35 -21 -35 5 -41 3 -51 -20 -9 -21 -9 -30 1 -42
18 -22 36 -19 70 15 17 17 33 30 35 30 2 0 5 -21 7 -47 l3 -48 110 0 110 0 3
43 c3 41 2 43 -17 33 -42 -23 -76 19 -42 53 16 16 23 18 33 8 20 -20 28 -14
28 22 0 57 -7 65 -54 60 l-43 -3 1 36 c1 43 -28 61 -63 37z"/>
<path d="M2101 2077 c-6 -6 -11 -16 -11 -22 0 -12 -31 -45 -42 -45 -3 0 -8 9
-11 20 -3 13 -14 20 -29 20 -30 0 -48 -17 -48 -47 0 -18 7 -25 30 -29 l30 -6
-30 -41 -30 -40 41 -30 c42 -31 51 -31 53 4 1 26 27 45 50 36 24 -10 19 -43
-10 -66 -29 -23 -26 -34 18 -57 33 -17 39 -14 67 35 6 10 14 7 34 -13 29 -29
52 -26 61 7 6 25 -18 67 -39 67 -22 0 -18 11 17 47 l32 33 -29 30 c-36 37 -53
38 -57 3 -3 -30 -30 -42 -52 -24 -18 15 -7 62 15 68 27 7 24 15 -15 40 -25 16
-36 19 -45 10z"/>
<path d="M1586 2013 c-4 -4 -41 -26 -83 -48 -42 -23 -81 -48 -86 -56 -6 -10
-4 -28 7 -52 l15 -38 29 21 c32 24 57 19 66 -13 7 -27 -10 -47 -40 -47 -33 0
-35 -10 -8 -52 24 -38 50 -42 75 -12 13 16 44 19 34 4 -20 -32 48 -68 73 -37
13 17 5 58 -15 72 -15 11 -12 15 25 34 23 12 42 23 42 24 0 2 -11 18 -25 37
-27 37 -25 51 5 43 30 -8 49 13 41 45 -6 21 -14 28 -39 30 -22 2 -34 -2 -38
-12 -10 -25 -33 -19 -46 12 -6 15 -12 30 -12 34 -2 12 -13 18 -20 11z"/>
<path d="M1896 1622 c-3 -3 -6 -24 -6 -48 l0 -42 -29 11 c-36 13 -61 -3 -61
-39 0 -35 52 -57 72 -29 5 6 11 6 18 -1 9 -9 9 -14 1 -18 -21 -14 -10 -26 22
-26 43 0 47 -5 34 -40 -14 -36 4 -60 44 -60 34 0 55 30 40 59 -14 25 -7 29 39
21 44 -8 50 -1 50 56 0 32 -2 34 -25 28 -31 -8 -55 10 -48 36 7 25 52 38 64
19 14 -23 20 -4 11 37 l-8 39 -106 2 c-59 0 -109 -1 -112 -5z"/>
</g>
</svg>
